<mxfile host="65bd71144e">
    <diagram id="DYGIa3b46HD92bC-9_LW" name="Page-1">
        <mxGraphModel dx="1374" dy="317" grid="1" gridSize="10" guides="1" tooltips="1" connect="1" arrows="1" fold="1" page="1" pageScale="1" pageWidth="827" pageHeight="1169" math="0" shadow="0">
            <root>
                <mxCell id="0"/>
                <mxCell id="1" parent="0"/>
                <mxCell id="2" value="" style="shape=image;verticalLabelPosition=bottom;labelBackgroundColor=default;verticalAlign=top;aspect=fixed;imageAspect=0;image=data:image/png,iVBORw0KGgoAAAANSUhEUgAABocAAAOcCAYAAACMq2iMAAAABHNCSVQICAgIfAhkiAAAABl0RVh0U29mdHdhcmUAZ25vbWUtc2NyZWVuc2hvdO8Dvz4AAAAmdEVYdENyZWF0aW9uIFRpbWUAbGttIDExIEFwciAyMDI0IDIxOjAxOjE0GO8BBwAAIABJREFUeJzs3X+Y1XWd///HDANnkHD44Q4/SiZkGbEPgloYWpKlaJcr6rcwPra4Zhlbadr6o2yRdXeN3dq0/ZTZZ9ds+xhuroFlgl4ZmjpaGdgao5sCqza0EpxEHAmZAzNzvn8Mv1QsU3SQ9+12XXNdnvd5n/d5zluvueZ4n9f7XVOtVqspgO7u7lQqlWzevDnd3d29PQ4AAAAAr0BtbW369euXUqmU2tra3h4HAF5XaooSh3bW2dmZzs7OdHd3p6urq7fHAQAAAOAl6NOnT2pra1NXV5e6urreHgcAXrcKGYcAAAAAAACKyppbAAAAAACAAhGHAAAAAAAACkQcAgAAAAAAKBBxCAAAAAAAoEDEIQAAAAAAgAIRhwAAAAAAAApEHAIAAAAAACgQcQgAAAAAAKBAxCEAAAAAAIACEYcAAAAAAAAKRBwCAAAAAAAoEHEIAAAAAACgQMQhAAAAAACAAhGHAAAAAAAACkQcAgAAAAAAKBBxCAAAAAAAoEDEIQAAAAAAgAIRhwAAAAAAAApEHAIAAAAAACgQcQgAAAAAAKBAxCEAAAAAAIACEYcAAAAAAAAKRBwCAAAAAAAoEHEIAAAAAACgQMQhAAAAAACAAhGHAAAAAAAACkQcAgAAAAAAKBBxCAAAAAAAoEDEIQAAAAAAgAIRhwAAAAAAAApEHAIAAAAAACgQcQgAAAAAAKBAxCEAAAAAAIACEYcAAAAAAAAKRBwCAAAAAAAoEHEIAAAAAACgQMQhAAAAAACAAhGHAAAAAAAACkQcAgAAAAAAKBBxCAAAAAAAoEDEIQAAAAAAgAIRhwAAAAAAAApEHAIAAAAAACgQcQgAAAAAAKBAxCEAAAAAAIACEYcAAAAAAAAKRBwCAAAAAAAoEHEIAAAAAACgQMQhAAAAAACAAhGHAAAAAAAACkQcAgAAeAkqD16XWceMy+ixkzPjiy1p7+2BAAAAXqaaarVa7e0hAAAA9mztWXDmuMz6fqXnYWlSZrfclgvG9u5UAAAAL4eVQwAAwB6iPQv+YkSGDBmSIUOGZMTJV6Wtt0farj6luvrnbunTS6MAAAC8QnW9PQAAAMCer5Rpn/1Kzm6/IoufGJTDP/L3OeuA3p4JAADg5RGHAAAAXooDpuWy70zLZb09BwAAwCskDgEAAK9/65bmuq99PQt+0JJlq9rTUT88Bx48KVNnnJNzZkxIw65e09me1hu/mmtuXJx7Wtuy5qmOZEBDho8cnqYxzWk+eEpO/fDMTBras3vb1adk8sUtqSTJAWfntvsuy6S6JCln6bfmZf5PW7NixfK0PbE2a9rbU0kpjW88MBPfeWrOOvesTD2g9FqdDQAAgN9LHAIAAF7X2u+/Imd8aG5aVu+0cWNbWu9qS+tdC7Pglsty7f89KxMG7PyipbnizNMz967y8w5WTlt7OW0Pt6blB0tTOmpHHHpRnY9k/j/NzTWrn/9EJeXHWrP4sdYsvmVxLrv5ppx90Mv+NgEAAHab2t4eAAAA4GUrL8xFZ+0chkppGNWUpqHbVulU0rbo0zlj9uK0b39RexZePOs5Yahh7JRMPXlaph3dnIZX+Cd0paFNaT6oOc0jd1optK4ll192Xcov/jIAAIDXjDgEAAC8brV+Y24WrNr6YMCEnP2dZXn8Fw/kgYfvy7V/0Zxteabthstz3WNbH6y8Ll+9qW3rg1KaP3xDfvazm3LDN6/Ntf/nrEzs80omKmXKnNty34/vy30PPZKbZjVvf6b9nsVpaf89LwUAAHiNiEMAAMDrU2drFv9gxfaHjafMziXHNvY8qGvKtDkX5rhtNxuqtGbx1pVC7Uta0lrZun3AlJzz6alpfFUGbMiU6VPTvG0lUqUty1f93hcAAAC8JsQhAADgdWrtTrGllHEH71gplCRpaM6EUdseVLKmrWe10Nry0zv2GdqUUUNexREbh6dh+0qk9nRsfBXfCwAA4CUShwAAgNet+j/wfMcutpUG9N/xoP3ptHftzole8G7p/4d3AgAAeE2JQwAAwOtUU5oO2PbPlTzyQGsqOz/9VGtat91nKKUMb2rqeVVzcxq2XeptY0sWLGjb6UXPOQIAAMBeSRwCAABen+qaM/XY5u0Py4uuyJzbe+4rlEpbFl721Szedhm30oRMPWrrnYWOODWnjt66vbOchX91dCa/74yc8Ren5OiTPpcWfQgAANjLiUMAAMAeqXLPnBzaOCRDdvE1+uMLkyQTPjI700dufcHG1lzzgYkZfcihOXT85Jzx7yu2H6vplHMyc+zWB6VJufALZ2fCgK2PO9uz4q6FWbioJa2rlCEAAGDvJw4BAAB7rs5df22/l1DjtHzxmtmZ0rhtQyXtq9rStm5H5Gk8enau/vy0NOx02IajL8v3f3h1LpgxJc0jG1KqS0qNzZny3klpqgsAAMBezcceAADgda1h8gW5qWVKrrvq61lwe0uWrWpPR31Dmt4yJdM+8NF8dMakNO7ik0/DQdMz+/9Oz+ydNz44N0ffvrTnn/s0ZFDDC18HAADweldTrVarvT0EAADAa6mysiU/bG/KcW9rSmn7xrYsOOeUzLqxredx48zcsOwrmVp6saMAAAC8Plk5BAAAFM7y//h0zvjnFSk1NKZp1PDU13Wk/bEVaWvfsU/TKdMzRRgCAAD2QuIQAABQMOW0PtizOqjSXs6KB8sv2KNh8gW5+rNTog0BAAB7I3EIAAAomFIOPPmczBywNK0r2rKmvCbl9kpKDU058OBJOerEmfnkn09JozIEAADspdxzCAAAAAAAoEBqe3sAAAAAAAAAXjviEAAAAAAAQIGIQwAAAAAAAAUiDgEAAAAAABSIOAQAAAAAAFAg4hAAAAAAAECBiEMAAAAAAAAFIg4BAAAAAAAUiDgEAAAAAABQIOIQAAAAAABAgYhDAAAAAAAABSIOAQAAe7hK2h5YkXJnb8+xVWcl5XWV3XKoyurWLH24fbccCwAA4KUShwAAgD3buvn59PvmpGVjbw/SY+ll78rxX/rZbjlW67/Oyqzrlu2WYwEAALxU4hAAAPCqqCyaldFvm5Olv2/Fz/1zMnncuVm8exbiAAAA8BKIQwAAwKuidOCBaV67Isu3XzWtLdd8YFxO+b8rtu/TvnxF1h5wYJpLvTIiAABAIYlDAADAq2PUhBw4YEVaf7n18erFWfTTcn72g5a0bd204pdtKb3l4DQlybqlueqjx+fQsSMy+u0zMveu8q6P296aaz55fA4dPSIjxk3Opxe1Jymn5Ytn5OhxIzJi7OTMuHRh2ratWHrgqsx416EZvf+IjNj/0Bz/qSsy9+M97zNi/NE59993xKrKg9fl3JMnZ/T+o3PoyZ/OwlW7HuHp2+fm6PEjMmL0oTnlwgVZsW3l0/1zc/z40RkxYkTGHTMr1zy4Y0lU26K5mfGOcRkxYnQOfd9VaX3eiqryDbNy6NvPzeJ1L/kMAwAAvCziEAAA8OooNWfCgWuy4uGeyNN+5z1pe+9Zmda2OPesTpJylq9cm4kTxiVpz8JLTs81OT3X3r0s3z+7Pgs+9bksfsF9htqz+JIzctW6k/LlO5Zl2a1X56wjGlL+1icza0EpZ11/X5bdPDtNd52bWdtWKK1bnmWdJ+banz+SZbdekOG3X57FQy7MDXcvy92fbc49l12ehRuTVFoy56zPZe2xV+ZnP78tfz+6Jedecl12maiGT8ns6+/Lslv/Ps0PXJRZX2nt2T52Zq689Rd55KG787m3tGbuP87vef3DV2XWXy1O0/nfyX3L7soNc0/MgXU7fVf3X5HT/7Gcs675YqYO3W3/BgAAAHZJHAIAAF4lTZk4fngeeXBZKmnP4ttbc9T7L8y0I1Zk4Z3lpPORtK4YlgkHNybti7Pg9uGZef7MTBjZmAkf/EhOrFuSlgefd8j2xbnuBw2ZOefsTDmgMY0HTEjz0HJuvnFJxv3l5zLz0KY0HjQtl50/NSsWzN+xOqd+UIY3NqTx4FMz/Yj6lIY3p3lkY5qnn5pJXW1ZsTrJTxfl5q6TcvbHJ6WxsTnT/vLUNC1pybJd3A9p0PijMvXgre917tS0LVrc814NTWke1ZCGoc2Z/oEpGdTWljWdSetN89N29AW57P0T0tTYlOaDmrL9SnqPL8i5H1uYiZdfm7MPdn09AADg1Vf3h3cBAAB4eSYcPimVL7Vm+br2LHxwUqZ/tTFTNk7KRTf+MOXD1mZZ5+G58C1JnlibNb9rzQ/fMyKXb391Q0793fMOuG5t1nQ2ZdrInbZ1rsnaJ0sZNapx+6bSG4dl2Lq1WfuCiUppGFBK5Xdbb4TUp5RBAyrp6Eja165N+6ofZsb+83bsXndc2juS/J5mU3rjsAxrX5unk5TvuiIXXXZdWh57OqVS0j70rFSSPL12TQaNHL7Lw6xZujBPlw7P7Kb6F38TAACA3cjKIQAA4FVTmnR4Jq66J4u/vTCtk6ZlyoCk4djjMqV1Yeb9YElWvOXwTCwlGTosw+sn5ZIf/ya/+c22r0fylWOfd8ChwzI8bWlbvdO2uoYM26+SVat2XACu/Ym1WTt0WIbtaqjn/4nc1scNQxvSMPac3PzrnWb49bWZ3vD7v8f2tlVZO3RYhncuzZWfuS758A155PHHs+zrp/bcSynJsKGD8nR5TXaxCCnD3/+VXDvj6cz90Bz3GwIAAF4T4hAAAPDqGTklRx2wLF/9UmuOOvm4NCRJw9RMO2pZvvqVJWk+6qg0JknDlEw7ui3XXHZNWh4rp73cltaHyz0xpb4+9VmbZa3tPfsduyZfv/SKtKwsp7x6RVasGp6T3n94HvnXS3LdA20pP7wwc7+0OM2nnJoJf8y1Eo6YnpMq83L5lYuzYnV7yqtWpPWxXeWcJE+V01Yup+3+63LRl1rSfMq0NNcl6er56qhUsvNyowknTsvwH1yROTe09rzuwRVp3/Zkn4ZMmTMvX2y+OZ++eGHKSdpvn5tZFy5I2x93tgEAAF4ScQgAAHgVNWfq0cPSMeCoTDtqWyxpyHEnH5dSR1OOO3rb2prGTL98Xs6qm5/zjpmY0W89PrO+0tITUAZMzcwPljL/4suztLMx0z8/L59sWJhZ75mYie+YkTm3t6XxL67M1dMruea0yZl40ty0Hf2VXP3J5j9u1AFTctk3L8mwuz6d4986OhOPmZG5t78wzzQ2T0jDTy/K5PHjMnnmNWl/79WZ9/HmpG5SzvrbE9P+leMzbv8RefOH5ydjhqWhLsmhF+ba/3NUVnzp5EyeODHHnzMvSzY+56iZ/oXPZcJP/yafW9Sep1e1puWny1PufMHbAwAAvGI11Wq12ttDAAAAAAAA8NqwcggAAAAAAKBAxCEAAAAAAIACEYcAAAAAAAAKRBwCAAAAAAAoEHEIAAAAAACgQMQhAAAAAACAAhGHAAAAAAAACkQcAgAAAAAAKBBxCAAAAAAAoEDEIQAAAAAAgAIRhwAAAAAAAApEHAIAAAAAACgQcQgAAAAAAKBAxCEAAAAAAIACEYcAAAAAAAAKRBwCAAAAAAAoEHEIAAAAAACgQMQhAAAAAACAAhGHAAAAAAAACkQcAgAAAAAAKBBxCAAAAAAAoEDEIQAAAAAAgAIRhwAAAAAAAApEHAIAAAAAACgQcQgAAAAAAKBAxCEAAAAAAIACEYcAAAAAAAAKRBwCAAAAAAAoEHEIAAAAAACgQMQhAAAAAACAAhGHAAAAAAAACkQcAgAAAAAAKBBxCAAAAAAAoEDqensAAAD2PP/2k825/v4teXhNd7q6e3saAF6OPrXJQcNrc9rb+ubDR/br7XEAANiD1FSr1WpvDwEAwJ7j3O90ZP5/buntMQDYjU49rG++8oH63h4DAIA9hMvKAQCw3b/9ZLMwBLAXmv+fW/JvP9nc22MAALCHEIcAANju+vuFIYC9lZ/xAABsIw4BALDdw2vcYAhgb+VnPAAA24hDAABs1+X/GwLstfyMBwBgG3EIAAAAAACgQMQhAAAAAACAAhGHAAAAAAAACkQcAgAAAAAAKJC63h4AAADoHbU1yZ/+SW3eMqI2bxxUm+Vru/PL33RldXu1t0cDAADgVSQOAQBAAb1zTJ9c8f76jBrywosJ/PjRrpx/Y0dWPdXdC5PteUoDapKN1VR6e5Ak+w5Intm4Gw9YV5OxI2uT33Zl5abdeFwAAGCP5rJyAABQMJ85rpT5H91nl2EoSd4xpk/u/NQ+eXfznvC3ZDU5YfqALL+oPsfs7nGG9cv8OW/I/CN3Og/POyXHvO8N+dU5pUzq7VNRW5uLzx2Y1lP6prQbD1s6pD6LP1af9w/ejQcFAAD2eL39EQcAAHgN/fnhffOp9/R7wfYfLe/MDT/fkid/V82Mt/bNB97aN984vT7HfvnZPPbkH7GCqF/fXPe39Rl737OZcnPXblhtU01lc9JReRVW7nRXU9lcTaUzSV2fXPqJ/jnhfzoy5bud29+r9FI+MdXW5ryPDcjFo567eeW9z2bqot1xDpKkJqW+u+VAAAAA4hAAABTFPv1qMvu9L1x3cnNrZ/7y2zuuKXbkAT0fE/r3rcmFU/vlE9d3vGYz7sodN2/MxFfjwL/dkplf2NLzz3V12XdATepfyfHWd+ZflnTl6W2HX9W9R1yKDgAA4PnEIQAAKIjjD6rL4H1qXrD91od6Asmfja/LNTP7P+e5E8f3zUX9Ktm4ufrKBxjYJxe/rz5njq1NqdKde++r5PzFnSknSb/afPDE+px3cJ+M6ps8s7E7rUs6MvOOrrxz+hty3djOzPxiR+7o3zdXnNEvxzbWprEueWZ9V759a0f+7r92Wt3Ury5XfaZ/3vnwphy+oDMZW5+WM/rke1/bmM+vrskHz3xDrhi0OVO/Vc0/XlBKbv1dpt3X89LGw/vnV4cnWb05U766Ne009M03/qZv9q2tZuXDm3P+/M25f/Muvr+NXfn23ZuzcqdR3nnigFz11to0lpLy6i35wvyOfHttz3NjD6vPPxxTl0mDa1JZtyV/9bWO3NqvLhefUsppY2rTUOnOjYs35a+X7IhMpQP6pWVOfYb1rebBX1Ry/s1bsrLzD5zb2tqccEJ9Ln1rn4zqU81Dyzfns9/dnPuff4+hYX0zf1Z9mld1ZPq8Lc/5PgAAgL2Lew4BAEBBTHjTrn/937R18cz4kX1e8FzfPskh+++Ojw21+eD0/jlvTHLvTzbnm48l7zymPl+a3HPsdx7XP1e8rTarfl7JBTdvTmtdbSYMf2HISr+aNI+sTcfKzfm7H2zOvemTj53SLyfsfKW8zV25f3XSOLJPRtUmo95Um1F1tRk/siap65O3Dk/KbV27jB/PPLo5F3y3IxfcsSVrtz3f2Z1Fd1by+fu7M+zgUi59x4ucj9qaDBtam7F/UpuxQ2uyb22y9tdbcv2dHfnrO7akvbFvLj2ub/ZNUhpVyjfe1zfNGzvzL4sr+WZrV1ZWanPm++pz3puT2++s5Jurkw+eVJ+PDdv5e+vOrfdW8i+t1TQfXp8vHVn7B8/t+HfX52vvrM0zD2/Ol5d0Zd+DSvnGtLrs+5zz2ieXzqjPpN9tyfkLhCEAANjbWTkEAAAFUV/33Nhy3+Nd+fGjXfnv3/aUgHsf7UxXd/Le/1WX/zViRwAZtm9tkq5X9uYNdTltTE1W3vNsPnJbd1K7JZXGATnvkLqMur8rJxxUm8rKjpy9aEvKdX0y/l39MuH3HG7Vo5vzLz+p5rvdfXLCCX0yYb/k1tXbnq3m3l91J++uzaT+NcmoPkl3cvCoPimt7pMJA6u5/9HOVPLCey91rOvKjUs6n3s5uI1d+d49m3NvujLqoH3y/jf1SSm7uGTcyH6Zf8HWY3Z35fNXPJsvL9uczydJtqR9ZN9ctV9tRtUmgw6ry9gtnbng2o58e+O2c9QvX9p6ji64sztpSMZ/ppRjx9bky7/t2aXyP535/J1bUqntTPYfkPPeUpdRy/Li53ZJZ06c0Cf5VSUf+c7mrEqytN+AXHdI3xy7sDO3JEltTY45qX/GD+zMX1/dkTs2BgAA2MuJQwAAUBBPPfvcS8P95LGuXH77jsTx40d7YtHbRz93BdHTz+6GS8o11KShNlm1buuSlO7urHoqyX41aaytSalfUumopv2PPGz7hmqeSc/rd7ZyZWdWHtM37/jTPukY2Z1bf1HNMW/qk3ce0CdjO7vyzf9OdtGGfr/uan67MSm92KeodVvyd3d09VzKras7D26oyTHH1+fSw/pkVP/0xKT1PbuOaqhNfteZFTtf2m3rORr77gH5zbt3+l4G7GIFVXd3Vj2dZFBN9h2UFz+3dbX5k32S9ie6s3bb8Z6sJnU12X+fbQeryfjhSWVNd1Y++0eeEwAA4HVJHAIAgIJ44NfPXf1z5AF9cuGxpXxv2ZY8+tvuvGNMnxwxui4Hj3zuZdN+vuoVrhpKkvZq1nYnoxprk3QntbUZNSTJxmrKm7vzUDn54AF9c+aY7ty6qTbD/shwU3r+htWduXd9vxxzRL+ktitf+El3Rs3qm49NqE1+3ZHbN+Z5caiadCf1r+QT0qbu3PGLHZdkK42pz3Xvqkv5Jx2Z2dqdt07tn4u3Xstt7cZq8ubaNPdP7t+2UmdDTxxbed+mnP+fO4Jce3t3kudd8q+uT8bvl1Se7k756ZoXP7ed3fnts0nDkNoMS7Iqydj9apPOrvx6Wwjq7s43F3Vl0gn9ctX7ujPt37dklcvKAQDAXk0cAgCAgrh7ZWd+017NiIaelSiTR/fJ5NF98uDqrjz62+68c0xdPvWe51aZ7y3bkvZNf/zKoUEj++Zjx2wNGt3JQ62d+d6j/XLF5P75RrZk1eC+OXNYNXfc1JlV6c63F1dywp+XculH63Lp1mM880q+2c6u3LqyO2dO7pNnHt6S29d0pXl9KeeNSu5ftHV1z3P2r2Zle7Lvgf1y6btrszbV3Hr3llcywXb19cm+A2vSv3bHCqB7H+zMqsP65jOn12fUL7uz6Q3Jz+/uzC2Pl3LpxFI+vnlLlj6TDNq3mtt/uFOca+yTj72zJoPG9M0Hh1Zz792dKbfXvPi57e7OotaufGxqv3zjAzVZ9GxtPnhYTcr/tSW377Rq6ZlfdeQTP6zNohNK+YfDuzLzPnUIAAD2ZuIQAAAUxJau5K8WdOQ/PtL/Je3fvqmav130gjvrvCT7vrlvLn7ztkfVfLe8OWcv6Mio95Vy5pGllCrduffOjpy/NUJUfrU5p36xM+P3r0n9ptqcdkZ9jn15b73d0ge7surw2qx8uDPPdFZz+/LunDe4mu8+uKvw0Z1v37E5x7yvX86c2ifP/HZzHrrnlb1/5fHN+cKS2nxmYn2+8baksqmalY/13KuosrySsxcll76rb857b/JMe2c+v3Rz/mXBpgw6qZTTjizlhNqkvGZLWu/cklSqWbW6O+1/2jd/dUKSjd25Y/GmfHZJNUk13/495/ahOzvyif71ufSt/XJx32oeeriSs2/uzDN57oqrlfd25GvjB+TiqaW877825bsbXtn3DwAA7LlqqtXqbriAOAAAe4MRF/u/wUVw4bGlXHDsjhVCH/rWptz2y8585rjS9pVDW7qSD1zzbO57fDdcUu4laPxfpXzqTdWs2pAMelPfnHlYTZZ+d2NmLvFxBXan33x+YG+PAADAHsDKIQAAKJjLb69k2RNdOXtKv7x99I572VSrPVFowQNbcuWdm/P4utfu0mKNQ2tzzOF1GdU/qWzqztJ7O/LX9wtDAAAArwYrhwAA2M7KoeIZOqAm3dVk/bPVDN+3Jk9vqqZj99xqB9gDWTkEAEBi5RAAABTauo07/lZszTP+bgwAAKAIant7AAAAAAAAAF474hAAAAAAAECBiEMAAAAAAAAFIg4BAAAAAAAUiDgEAMB2ffx2CLDX8jMeAIBt/GoIAMB2Bw336yHA3srPeAAAtvGbIQAA2532tr69PQIArxI/4wEA2EYcAgBguw8f2S+nHuZ/HgLsbU49rG8+fGS/3h4DAIA9RE21Wq329hAAAOxZ/u0nm3P9/Vvy8JrudHX39jQAvBx9ansuJXfa24QhAACeSxwCAAAAAAAoEJeVAwAAAAAAKBBxCAAAAAAAoEDEIQAAAAAAgAIRhwAAAAAAAApEHAIAAAAAACgQcQgAAAAAAKBAxCEAAAAAAIACEYcAAAAAAAAKRBwCAAAAAAAoEHEIAAAAAACgQMQhAAAAAACAAhGHAAAAAAAACkQcAgAAAAAAKBBxCAAAAAAAoEDEIQAAAAAAgAIRhwAAAAAAAApEHAIAAAAAACgQcQgAAAAAAKBAxCEAAAAAAIACEYcAAAAAAAAKRBwCAAAAAAAoEHEIAAAAAACgQMQhAAAAAACAAhGHAAAAAAAACkQcAgAAAAAAKBBxCAAAAAAAoEDqensAAACAV117a667bG4WrKwkW5LShOmZPWdmJgxIyv9+Rqb885qMe2OyadOgTPzIZblsRnNKvT0zAADAq8TKIQAAYC9XzoILZ2XhmNm54fs35aZbr82FQxdk1sUL054klY40zbgyN33/ttz2/07N2n+ck3mre3tmAACAV484BAAA7N3KP8z81ik5+8MTtq4GasikT5ydw+9ZkMXtz9t35KQcfsDTaX/+dgAAgL2IOAQAAOzd1q3N08Ob0rTzdeJKw9I0tD1r1z1318pj96Rt1OmZftBrOiEAAMBryj2HAACAvdvQYRm0pjVtlewIRJW1aVvXkClDk6SSFTd8Mqfc2Z5lK4fnwltvSlMvjgsAAPBqs3IIAADYuzUel1MntOSqf2tNJUlSSevXrsqSI6ZnakOSlNI848rcdOttufYDT+fKC6/Kis5enRgAAOBVJQ4BAAB7ucZMv/zqTF0+NyedcHyOP+GkzF07PVdfPi0Nz9mvIVP+7upcWJqXy7/vpkMAAMDeq6ZarVZ7ewgAAAAAAABeG1YOAQAAAAAAFIjn6XIsAAAgAElEQVQ4BAAAAAAAUCDiEAAAAAAAQIGIQwAAAAAAAAUiDgEAAAAAABSIOAQAAAAAAFAg4hAAAAAAAECBiEMAAAAAAAAFIg4BAAAAAAAUiDgEAAAAAABQIOIQAAAAAABAgYhDAAAAAAAABSIOAQAAAAAAFIg4BAAAAAAAUCDiEAAAAAAAQIGIQwAAAAAAAAUiDgEAAAAAABSIOAQAAAAAAFAg4hAAAAAAAECBiEMAAAAAAAAFIg4BAAAAAAAUiDgEAAAAAABQIOIQAAAAAABAgYhDAAAAAAAABSIOAQAAAAAAFIg4BAAAAAAAUCDiEAAAvaNSTuuDban09hwAAABQMOIQAACvmfZF52byMXPT2pnkzkty8mcWZU1vDwUAAAAFIw4BALCT9lz3wREZMmTITl8jcsaNu2d9T8NbpubUGUdleN1uORwAAADwMvhYDgDA89Rn0mdvzrwzmrY+LqXUUNo9hz5gWi6YtXsOBQAAALw8Vg4BAPBCb2hMY+O2r4Y0lJJsbMnckyfn0LEjMmLE6Bz6gTm54rIzcvwhozNi9KE5ZfbClLe+fMXVM3r2239cJv/FFVnavvWJ28/NuGOuyIpe+rYAAAAAcQgAgJeqs5zW1obM/O6yPPLz72Rm53X56gMTMvu7P8uy+WeldOPf5Mr7enZtOvGy3PTjR/LIj6/M1Ce+mku+JQcBAADAnkIcAgDgeTqy9B+Ozuixo3u+3jEnSzu3PTcow4Y1pmHkpJx+4sSkflgmHtCYxrfNzLQJT2fFip61Q6WRzWlqbEjDqKk5/b1NaXu0rde+GwAAAOC53HMIAIDnqc+kT3wnV/95Y5Kkf92gNOzit8aGhoakoyOVra9paEgqHUnSnqVXX5RLvtGSFeVKSnUdyZ+9dtMDAAAAv584BADACw1qTNOoppfxwk3Jynm55IvlnPTdn+Xsgxuy4p+Pz0kWDgEAAMAeQxwCAOCFfldOudx/64NSSgMa0vBSX7vtEnSdlVQqlXS82H71g1IqL09rOWlqfCXDAgAAAH8M9xwCAOB5OrL0H4/PuHHjtn6NzrgLF770lx90VmZ/uJR5H5iYEfu/OSf/aznj3jjohftNOjUfHXVPLrp04dZL0wEAAACvhZpqtVrt7SEAAAAAAAB4bVg5BAAAAAAAUCDiEAAAAAAAQIGIQwAAAAAAAAUiDgEAAAAAABSIOAQAAAAAAFAg4hAAAAAAAECBiEMAAAAAAAAFUtfbAwAAsOd58skns379+nR0dKRarfb2OAC8DDU1Namvr8/gwYOz33779fY4AADsQWqqPu0DALCTX//61+ns7ExjY2P22Wef1NTU9PZIALwM1Wo1zz77bMrlcurq6rL//vv39kgAAOwhxCEAALZ78skns2HDhowePbq3RwFgN3r88cczcOBAK4gAAEjinkMAAOxk/fr1aWxs7O0xANjNGhsbs379+t4eAwCAPYQ4BADAdh0dHdlnn316ewwAdrN99tknHR0dvT0GAAB7CHEIAIDtqtWqewwB7IVqamriqvIAAGwjDgEAAAAAABSIOAQAAAAAAFAg4hAAAAAAAECBiEMAAAAAAAAFIg4BAAAAAAAUiDgEAAAAAABQIOIQAAAAAABAgYhDAAAAAAAABSIOAQAAAAAAFIg4BAAAAAAAUCDiEAAAAAAAQIGIQwAAAAAAAAUiDgEAAAAAABSIOAQAAAAAAFAg4hAAAAAAAECBiEMAAAAAAAAFIg4BAAAAAAAUiDgEAAAAAABQIOIQAAAAAABAgYhDAAAAAAAABSIOAQAAAAAAFIg4BADAdjU1NalWq709BgC7WbVaTU1NTW+PAQDAHkIcAgBgu/r6+jz77LO9PQYAu9mzzz6b+vr63h4DAIA9hDgEAMB2gwcPTrlc7u0xANjNyuVyBg8e3NtjAACwh6ipum4IAAA7+fWvf53Ozs40NjZmn332cRkigNeparWaZ599NuVyOXV1ddl///17eyQAAPYQ4hAAAC/w5JNPZv369eno6HAPIoDXqZqamtTX12fw4MHZb7/9enscAAD2IOIQAAAAAABAgbjnEAAAAAAAQIGIQwAAAAAAAAUiDgEAAAAAABSIOAQAAAAAAFAg4hAAAAAAAECBiEMAAAAAAAAFIg4BAAAAAAAUiDgEAAAAAABQIOIQAAAAAABAgYhDAAAAAAAABSIOAQAAAAAAFIg4BAAAAAAAUCDiEAAAAAAAQIGIQwAAAAAAAAUiDgEAAAAAABSIOAQAAAAAAFAg4hAAAAAAAECBiEMAAAAAAAAFIg4BAAAAAAAUiDgEAAAAAABQIOIQAAAAAABAgYhDAADsdSrr2tPe2dtTAPSOzo0bsqm7t6cAAGBPJg4BALB3qSzMrLedkfmre3sQ4CXr7Iyeu5ts/kXmfX5elrb39iAAAOzJ6np7AAAA9iTtWfjxt2fWjeVUUkppSFMmHHVqLvzsOZl6QKm3hwNeDZ0P5fq/m5dfbN5pW+2YTP+bWZnU/zV4//Ut+dqX23LkJafnEJ9Qd6POtN3xb1nw07aUN/VN49gpmT7jPWl6Lf6dAgCwx/OrNwAAz9HeXsmEz96V73y4KZV1K/LDr1yUWad35Pt3z84Evz3C3qnPkEz60Cdy/Ju2bahL/9cyInS9hu9VGHVpPOiYnPa2kRnc/Whu+fr1uWXJIfnEu4b09mAAAOwBfLwHAOCF6hvS0NCQNEzKzHNPzbx3Lc6SclK/aEZmfLElazoa0vTuj+bKKy/IpIakfPvcfHL2NWlZ1ZGGt5yTebfNzqRVC/Lpc+Zm/gNrkmFvz4XX35RTl87I22+cmru+f1aaUsniT03M3Dd+J3ddNCHpXJo575iVfPmBXDa5nJYvXpS/+cYPs7yrKVM+ODv/NGdamuqSths/nfP+6eb8bFV76pvPyXfumJ3mX1yViz5zZRb+spLhBzclnYNyVG+fQ3id6T9gYAYOfN7GTW1p+e6C/OiX5WwZ0JRDjz0lpxw+MnVJnrr/+sy7fXnK7ZuSwVMy68I/yxvLS3PTjT/KA//zVDrrBqax6chM//B70lSbdK7+aebfeEceWr0p/YePy5STp2fKm7cWqM6Hcv3sz+T6JOPe/7c58/Bt2x/Ngn+6Pnn/xZl+YF2Sp9Jy1RV5dNIlOfPwzjzygwW5Zcl/p9y9b8Yc9meZfuL4DKlNOv/zm7n0Z+Ny8cePyMAkT939tVyx6sj83emH5JldzN207YLrmx/NLV9fkAfWPJUNnXUZ+KbxOebkU3LEm/on2ZCl876WWx55Kptqh6Rp0sk5/aRxGZhNabvjP/If9zySp7b0z5BDpufcU8en/7pfZMG3F+WB1RuSAU055sOzMuSOz+W2obPymRNGJt1tueXyedn0/12S6WOTrLktX766nGMuPj3ju17svG/IQzfPyy2/eCJPbUoGHnJaLp4xPlt+1ZIF3/tRHilvSf/hQ5Lu/hmTpP/IMek5k01545Ck/Or+JwQAwOuIOAQAwIvb2JbF/35zVgydmOahSdOJl+WmU4ZlUMeSXH7mrFzyrWm57eMd+fpl81J/7l351fThaX+iPQ11ScvX5qblLX+fn80/LqV1a1IZljTm8DT9w5K0bjwrTaXlWfJAOcvLrWnPhDSsXpYH2yflIwcn5W99MrMWNOSS6+/LcfWtufxj52bWfgfmtk82p9zakrbDPpf7bp2a/hsraai0ZM7Hrkx5xtW5e15TOn56Vc791IrePnOwF9iUh26alx9tOjKnnz8pA8stuf6GeVk09IKcMqYuG1avyob9/ywXnD0ufTuT/t1tWfStm/LEuNNy9sym1K+5I9+8fm02dCfpfjSLrrst68f/75z3F43Z8J8LMu+6mzLkgtMyPknqxue0OVsvK7fznXHrmjJudGduWf5EcmBTsmlVHv1tY5rG9M9T912d//hF/xz/oQtyYN2q/OjbCzLvzsacd0zj7/2uXjD3zu/X9VSeWF2fSX/5mRw5sCNt98zPgv93UwZecFrG9x+Yce89M+PeNzD5bUvmfeP7uWPCuJzSsDS33LUpkz7+t5myX2ee2lCX/kke+dGiPNp4Si74y3Hpv/GpdA6sSw5ozDP/1ZYNGZmB7W1pW78hW1aVk7GN2fQ/q7N++Lg09duUh65/sfO+KeW2JzL4XeflE2/rny2d/VO3+ZHM//aPsuGw/53zPtSYTY//KAtufG4Geur+m9KyYVKmH27VEAAAPWr/8C4AABRLR5b+/eSM2H9EhoyenE/ePjznXDk7U0pJaWRzmhob0jBqak5/b1PaHm1L6uozqFTJml+uyJqU0nhAY0pJ+g8o5enHVuSRjaU0jGpKYynJ2Ck56g2tWfJwkqeWpDUTcuCKJVlSSdqX3pNHDpuStw8o5+Ybl2TcX34uMw9tSuNB03LZ+VOzYsH8tG67Y/2QxjQNbUjjqMaUfrogN+fUzP6rKWke2ZQJJx6VJn8CBX+crqfS8q+zM3vO7Mye87f5wvceTTYtz9Jf9s8RJ7wnY4YOTONBx+fEg7fkof/87x2vqx+SIQMHZuDggal7dGke2nxojj9hfEY2DMyQIfvu+GvERx/IQ53jc/xx49LYMCRj3nVijqhfnqUPb9pxrNrs4hNqXcYdfGA2rXgoq7uT/M9/54k3/GnGDX4qD/28LY1HnZIjRg3JkJGH5M+OHZP1Dyzt2e8P2Xnu5z9X2zf7NgzJwMEjM/7EUzOp3/I8sLznh8/AP2nMwAH9M/DNR2b8yGey/slNSV3f1GVD1q7ZkC39BqZxaM9anf6lvtn01BNZvynpP7gxA+uSgWPGZMiaX6Vtc9LZ1pYNQxuzoa0tm9KZtkefyOAxYzLwJZz3/oOHZOCAgRnSUJfORx/I8hzSc24HD0nT+D/NkJ3OY+f/3JZ5tyfv+dApGeN+QwAAbCUOAQDwPPWZ8Ikbct+Pl+WRlb/JI3dfmwuOakjSnqVXz8rxbx+X0aNH56Srl2/dvzlnXfWVHP74nBw98ejMurIl7UkmnX91Lmm+J+e9Y1yO/9R1aW1PUjchU454OkvuWZH2ny7J2ndekJkHtKblwUqW3NOacUcdlcbONVn7ZCmjRu346///n717D7OroO/9/5mZncwtc02YXCCMKZLEUwzQNgrtkdJWiI8FLxWkraA/LeY81SqteOn5AT4eAVsr2ArF85zIaY8Fj1jSnyi2TymWo3gsl3gOF1EBRTpgErLD3JPM7MnM7N8fSYZbhBAS9iTr9XqesFh7rb32d3a4TPZ71lqNRy7Mwv4t2bKXaYf7h1PpWZQeQQj2X0N3Vv/ehbnwQxfmwg99MO87vTfZMZCR6bZ0d+3ZqZS2zraMjY5mbC+HGBsezVhH917/XRwbHc1YW3e69myr70p3586MjO7tSM9UWn5iVkw8kHt+NplNP+7LnOXHZUlGM7p9Trq6n6odzZ1tad4xkpEX+7U/n/qu9HTvzOjoSDK5KRtu/Hw+/cmLctEnrsxtP0synaTt5Jz1+ydk/LbP59N/vi7/+MBAkqT3tPOyZsEj+fIVl+VzX7kjm8aS9KzMMU2P5SePT+Ynj5Rz9KmnpLf8kzwytjGP9M3JK4/tedHv+87R8exsa0/Xz/nTffmBB5ITfiuru/a+HQCAYhKHAAB4jsYFvek9uic9HU978MfX5uLPlPOma+/Ko48+mq+/b9VT+x97Zi79n3fm3i+fneFr1uaSb1WSjlU5989vyj3fXZdTHr4ka6+6P0ljTllzSvq+dXNu/ObDWfUbp+eUkxtz963X5dY7evK61/cmpY4sXFDJY489dVmk4Y1bsmX+wizcy6wdCxemcVNf+ioH7e2AQmhu7053165fba2lpKU77fWjGRjcs8dkBgZG09zWlr2dgDKnpSlzto/suozcs7e1taV5dCCDe87+mx7MwFDS3rbnSJO7QsvezF2ZX12VPHDXv+WeH09mxS8emdS3pa11564zd3YbGxjNWEt72pOkVMqc8ZGM7sf78AzTgxkYTZpb2zP6vW/kpp/15qw/+S+5/BMXZk3vU7t1v2pN3v3hi7P21Obc85WvZcP2JM1LcvLZ78vFH/7dvPKJb+S6f+1L6o/Mq49JHvnRv+XBx7rzyhUr88oFj+XB7z2Qn2RFjjsqL/5972jLnOGBlCf3sjHJktdfkPefvuSlvhMAABxmxCEAAPbNng8eJyupVCoZn9kwnIe/d3/Kw5U0LVye3o5Kxrcl5e9vyMPlSiqNvVlxZGMq24eSJI2vOzOnPPTXueKO5Tnt5MYsf8PpqXzxiny94/SceWyS9OZNb3tNHvxvF+f6e/pS/tHNufyzt2b5W87Oqr2dHXTy2Tm79cZc/smbc/+m4ZQf2/K02YD91rwiq1eOZcM/3ZZH+kdT/tEtueUHc3LcL71yr7uXjnl1jpm4N7f8r0cysH00mx7ZOBNnSsecmOPqH8gt//JgysMDeeTb38gd48dl9YrmpK07XXM25vv3ljM6uCmbBp9bOXpPPjltP7gl/za2Iif2lpJ057hf7k35uzfljscGMrDp3vzjbY+k68TVWVKflJb2pmfg3nz7/27KwOhoRrfv3Peve3o0//5QXwaGB9L33VuyYfSVOfHYUjK1e/vkzkw+fcSJgfQ9NpCxiaRtUXfapscyOZmMbupLeXQyk3N70tM9Jzsrk0lK6V11TMa+d1vubV2ZlW1tWbGiLQ/864aMHvvqHFm/P+/7iTlh7j255eZ7s2lwNKMDIxmbCW2T2XTHjfny/3okP6cdAQBQUC6+AQDAvnnV+bnoPXfno28/PpcMJx3di3L8H3Qmk325+dJ35a/v7st4U29WnXFprj4tefBTH8nav7k/5cmO9J58dj55ySm7jtNxes4+rTG3jp+ZU1qTHHtaTlt4RW4/86ws3/1SPe+8Ouu2fCQf/72T8pGp3pzy+1dl3QeW732uxtW5+H98Jpd87PK8+ZffleFST3pffXbOb3053hQ4nDXnuN85LwP/3/pc99lbsrO1Nye+8d0545if88fI5uPylnM2Zv3N1+XKb+5Mc097JuuPTqk+Sf0xOeOdv50b/2F9PvedsczpWZnffOdbclxrkqzMr//Gkbnun67MZTvbcswb12btr/U889jzV2f10bdkbMlrZu4p1n3S7+V3h9bna3/z6dw01Z1jVp+V835j9/O6fjVveUNfvvyNa/LpscmUmrtz5Gv2cn+hvRrLpjtuyJVfHcicrmNy8jm/lxPakvzSmvzWj9fnuituz9h0Kc1t3TmhbU4yfG9uu/4beXB4MqXWnrzy9WflhI7J9H17fW64q5yx6VLajjoxZ7zxmCRJ6ZjVOa7pnmx61Yq0Jclxx6Xnn+/IkhOP2T3fi3zfS8fkjHe+JTd99Zas+4uBjNU3p63nuHTv3n3kiUfSt/2VGcsxu14PAACS1FWr1WqthwAAAOBQN5nR/pGkqTmljGXTnTfky4+emAvOP/klRInJTI4lY1tuz5dv6MuJf/jurO544Wftt7ENWfepDXn1h9+Xkw/m6wAAQI05cwgAAKDALrrookxOvvSLjn36z96Xf7vhutyxaTRjaU537wk5420n57KPfWz/jvfpTyf9/5Z1f/WP2djcm19963lZ/6mPZf1LnvR5XvMTZ838/cf2c+7ZbMmSJbngggtqPQYAALOAM4cAAAAAAAAKpL7WAwAAAAAAAPDyEYcAAAAAAAAKRBwCAAAAAAAoEHEIAAAAAACgQMQhAAAAAACAAhGHAAAAAAAACqRU6wEAAJh9nnzyyQwODmZ8fDzVarXW4wCwH+rq6tLU1JSurq4sWLCg1uMAADCL1FX9aR8AgKd5/PHHMzk5mZ6enrS0tKSurq7WIwGwH6rVanbs2JFyuZxSqZSlS5fWeiQAAGYJcQgAgBlPPvlkRkdHs2zZslqPAsAB9Oijj6atrc0ZRAAAJHHPIQAAnmZwcDA9PT21HgOAA6ynpyeDg4O1HgMAgFlCHAIAYMb4+HhaWlpqPQYAB1hLS0vGx8drPQYAALOEOAQAwIxqteoeQwCHobq6uriqPAAAe4hDAAAAAAAABSIOAQAAAAAAFIg4BAAAAAAAUCDiEAAAAAAAQIGIQwAAAAAAAAUiDgEAAAAAABSIOAQAAAAAAFAg4hAAAAAAAECBiEMAAAAAAAAFIg4BAAAAAAAUiDgEAAAAAABQIOIQAAAAAABAgYhDAAAAAAAABSIOAQAAAAAAFIg4BAAAAAAAUCDiEAAAAAAAQIGIQwAAAAAAAAUiDgEAAAAAABSIOAQAAAAAAFAg4hAAAAAAAECBiEMAAAAAAAAFIg4BADCjrq4u1Wq11mMAcIBVq9XU1dXVegwAAGYJcQgAgBlNTU3ZsWNHrccA4ADbsWNHmpqaaj0GAACzhDgEAMCMrq6ulMvlWo8BwAFWLpfT1dVV6zEAAJgl6qquGwIAwNM8/vjjmZycTE9PT1paWlyGCOAQVa1Ws2PHjpTL5ZRKpSxdurTWIwEAMEuIQwAAPMeTTz6ZwcHBjI+PuwcRwCGqrq4uTU1N6erqyoIFC2o9DgAAs4g4BAAAAAAAUCDuOQQAAAAAAFAg4hAAAAAAAECBiEMAAAAAAAAFIg4BAAAAAAAUiDgEAAAAAABQIOIQAAAAAABAgYhDAAAAAAAABSIOAQAAAAAAFIg4BAAAAAAAUCDiEAAAAAAAQIGIQwAAAAAAAAUiDgEAAAAAABSIOAQAAAAAAFAg4hAAAAAAAECBiEMAAAAAAAAFIg4BAAAAAAAUiDgEAAAAAABQIOIQAAAAAABAgZRqPQAAALPPF77whVz/pS/lBz/4YaamJp+2pS5J1bp169atHwLrDQ31+cVf/MWc+4535L3vfW8AAGCPumq1Wn3h3QAAKIr3ve99ueGGG2o9BgAH0O/+7u/m85//fK3HAABglnBZOQAAZqxbt04YAjgM3XDDDVm3bl2txwAAYJYQhwAAmPGlL32p1iMAcJD4bzwAAHu4rBwAAEmSarWanp6eTE1N1XoUAA6ChoaGlMvl1NXV1XoUAABqzJlDAADMEIYADl/+Gw8AwB7iEAAAAAAAQIGIQwAAAAAAAAUiDgEAAAAAABSIOAQAAAAAAFAg4hAAAAAAAECBiEMAAAAAAAAFIg4BAAA83aven5t+/GhuWru81pMAAAAcFOIQAABwCGvM6svvzED5ppzfcYAOOVlJZftQhscrB+iAAAAAs0up1gMAAADMKj++NueccG2tpwAAADhonDkEAAAcphqz/B1X5ZZ7N2egvDn3/MtVOffVjTNbe15/Yb747QezuTyQzY8+mHv+9aqctSTJ0e/PLeWB3PKHPUmS1X/yldz5wKPZXB7IwOMP5ltfOD+rWmv0JQEAABwA4hAAAHBYanzdxfm7vzw3vZtuzJV/eV36jj43V/3tpTmlMcnR5+bqL1yU00u354o//WAu+eeh9L56VVY859J0jVm0/Pgsb304N156SS7/Sl9633ZpPuN+RAAAwCHMZeUAAIDDUGNOedvZWb795nzwvA/m+v6k46cLc+9/fVPOet0lue/oM3NKa1+uu/ADufLOSjomz8xfvG3hzz/c8ENZv+6a3J7vp/cNN+XsE1elMQ/HXYkAAIBDkTOHAACAw9LCno6k/FgeGt61PvzIY9ky2ZGFC5PO1s40Zjhb+l9k3pkaypb+pLGp6cAPDAAA8DIRhwAAgMPSlvJw0nP0zKXiOo45OgtLw9myJXni+/elr7QiZ/+nM7P86N4cf8zznDX0DOMHbV4AAICXi8vKAQAwo66uLtVqNamrS/YsqtXdjz+1brvts2d7UpckWZRT3n9hOnbu/od503dy/T/cmId///25+Lqr0vudSl7zrjPT8dNrs/5/T6Qy/vl86n+ekqve88Xc+Z7dz5m8f8+/CM9a5pnrux+s2z3A7H5/bLf9WdsBACDiEAAATzPzweHu5VOrz1y33fZZtT1JSstzxocvyhm7d8n3Ls/6N16WtR/uyGc+enYu/JOkfO/1+eCFl+T28WqSf8+Nf3RS/uVzq3P8omTspMtyy0eSoe0zR3zWCzx9gF0PPjXXLH9/bLf96dsBACBJXdWPDgEAkF0fIC5YsGDXB4h1ydPPzLBu/bBbn7s653/yzHT8rC/Ddb05Y+37c8r2a7LmlI9nw8QsmM+69YO03t//ZOrq6gIAQLE5cwgAgBm7fmyomlR3fZpY3b20bv2wW29amOX/8eyc/Qs96chw+n64Ppd87MpsqDz1afqsmte69QO1DgAAiTOHAADYZebMocz8oPkzljP72W677bbbfshu73/SmUMAAEQcAgBgl2q1mvnzF+Tnf7xoaWlpaXmoL/v7+8UhAABSX+sBAACYTaqpWlpaWloexksAABCHAAB4muruv1haWlpaHp5LAABI4rJyAADs4rJylpaWlof/0mXlAABIIg4BALBLtVpN9/z5P/8zxZkdbbfddtttP1S3DwyIQwAARBwCAGCXarWanp6FmZqaTM0/vbTddtttt/2Ab29oqE+5XBaHAABIqdYDAAAwe6xYsTw/+OEPs+sDxaQuT93IfNd6nrVuu+222277obJ9+YoVAQCAJKmv9QAAAMwebz/nnNSlLnV1dalLXbJ7ad26devWD/31c95+Tq3/NwMAwCzhsnIAAMyoVCr5w/e9L1/96ld3P/LUz6Jbt27duvVDd/2tb31r/uvnP5/GxsYAAIA4BADAjGq1mh07duQLX/hC1q9fn4ceeihTU1O1HguA/dDQ0JAVK1bkrLPOynvf+960tLTE/YYAAEjEIQAAnqVarWZiYiLj4+OZnJys9TgAvASlUilNTU2ZO3euMAQAwAxxCACAvfJtIsDhQRQCAODZSrUeAACA2cmHiQAAAHB4qq/1AAAAAAAAALx8xCEAAAAAAIACEYcAAAAAAAAKRBwCAAAAAAAoEHEIAAAAAACgQMQhAAAAAACAAhGHAAAAAAAACkQcAlEYRGMAACAASURBVAAAAAAAKBBxCAAAAAAAoEDEIQAAAAAAgAIRhwAAAAAAAApEHAIAAAAAACgQcQgAAAAAAKBAxCEAAAAAAIACEYcAAAAAAAAKRBwCAAAAAAAoEHEIAAAAAACgQMQhAAAAAACAAhGHAAAAAAAACkQcAgAAAAAAKBBxCAAAAAAAoEDEIQAAAAAAgAIRhwAAAAAAAApEHAIAAAAAACgQcQgAAAAAAKBAxCEAAAAAAIACEYcAAAAAAAAKRBwCAAAAAAAoEHEIAAAAAACgQMQhAAAAAACAAhGHAAAAAAAACkQcAgAAAAAAKBBxCAAAAAAAoEDEIQAAAAAAgAIRhwAAAAAAAAqkVOsBAAAOZZs3b671CABQWIsXL671CAAAhyRxCADgJfLBFAAkfX196erqSnt7+8vyen5AAwBg/7msHAAAAPCS7Ny5MxMTE5k3b16tRwEAYB+IQwAAAMBLMjIyknnz5qW+3scMAACHAt+1AQAAAPutWq1maGgonZ2dtR4FAIB9JA4BAAAA+210dDSlUinNzc21HgUAgH0kDgEAAAD7bXBw0FlDAACHGHEIAAAA2C87duzIzp0709bWVutRAAB4EcQhAAAAYL8MDw+ns7Mz9fU+XgAAOJT47g0AAAB40SYmJrJ9+3aXlAMAOASJQwAAAMCLtnXr1rS1taVUKtV6FAAAXiRxCAAAAHhRduzYkbGxscyfP7/WowAAsB/EIQAAAOBF2bp1azo7O501BABwiBKHAAAAgH02Ojqa6enpdHd313oUAAD2kzgEAAAA7JNqtZr+/v50d3envt5HCgAAhyrfyQEAAAD7ZHh4OEnS0dFR40kAAHgpxCEAAADgBU1OTubJJ59MT09PrUcBAOAlEocAAACAF/TEE0+kra0tLS0ttR4FAICXSBwCAAAAntfg4GB27tyZI444otajAABwAIhDAAAAwM81NjaW/v7+LF68OPX1PkYAADgc+K4OAAAA2KuJiYls2rQpCxYsSFNTU63HAQDgABGHAAAAgOeYmprKpk2b0tHRkc7OzlqPAwDAAVSq9QAAAADA7DI5OZmNGzdm7ty5WbBgQa3HAQDgABOHAABIsuuDwMnJyezcuTMTExOZP39+rUcCoAZ27tyZn/3sZ2lqasqiRYtqPQ4AAAeBOAQAUDCTk5MZGxvL+Ph4du7cmcnJyVQqlSRJfX19GhoaUiqVMjExkblz59Z4WgBeThMTE9m4cWNaW1vT09NT63EAADhIxCEAgMPc5ORkxsfHMz4+nu3bt2fnzp1pbm5Oc3NzGhsbUyqVUiqVUl9fn1LJt4cAh7KRkZG0t7fv93O3bt2a7u7udHV1HeDJAACYTfzpHwDgMDQ1NZXR0dFs27Yt4+PjaWpqSlNTU4444oi0tLTUejwADoLx8fFs3br1Rceh6enplMvlbN++PYsWLUpra+tBmhAAgNlCHAIAOIzs2LEj27dvz+joaBobG9Pe3p5FixY5IwigALZt2/aifwCgUqlk8+bNmTNnTnp7e/3/AgCgIHzXBwBwGBgeHs62bdsyNjaWefPmZeHChX7yG6BgRkZGsmDBgn3ad3JyMv39/dmxY0fmz5+/35eiAwDg0CQOAQAcwiqVSgYGBjI2NpaOjo4cccQRmTt3bq3HAuBlNjg4mLq6urS1tT3vftPT0xkYGJi5N1Fvb2/q6+tfpikBAJgtxCEAgEPU4OBgBgcH09zcnCOPPDKNjY21HgmAGpiens7g4GB6enpSV1e3132mpqYyNDSU4eHhNDY2ZunSpZkzZ87LPCkAALOFOAQAcIh5+tlCXV1d6erqqvVIANTQli1b0tjYmHnz5j1nW6VSydDQULZv357W1tYsWbIkTU1NNZgSAIDZRBwCADiEbNu2LeVy2dlCACRJ+vv7MzY2lt7e3pnHKpVKtm/fnpGRkTQ0NKS9vT1HHHGEy8cBADBDHAIAOERs27YtmzdvTnd3d+bPn1/rcQCosZGRkQwMDOSII47Itm3bMj4+nrGxsUxPT6ejoyNHHnmkS8cBALBX4hAAwCFAGALg6cbHx1Mul5MkW7duTXNzc1paWtLW1paWlpYaTwcAwGwnDgEAzHLCEADPNnfu3DQ2NmZ8fDytra3p7u52LyEAAPaZOAQAMIsJQxyyJodTHm5Kz3z3xYKDob6+PkuXLs3U1FQGBwezcePGNDU1Zd68eWlra3N/IQAAnpfvFgEAZqlqtZqBgQFhiNnjsWvzlmXn5Pry7vXKz991w6Vrsuazd70sYx32nud9PiCmN+W2qy/L335v9CC/EAdDQ0NDFixYkFe84hWZO3dutm7dmkcffTRPPvlkJicnaz0eAACzlDgEADBLDQ8PZ3p6Op2dnbUehUPN96/MmmXd6e7uzuKlK3Pi6e/KR/9mQ8ov9XPi/i15Yn5vju5OKl9bm2XnXZvyCz+Ll+A57/Omm/PRN56UlUsXZ9mvvCUf/Vrfz3/ydF9u+vNP5Ms/eoEXqe/KMb+0Oice1XyApqYWGhoacsQRR2TZsmXp7u7O6Oho/v3f/z1DQ0O1Hg0AgFlIHAIAmIWq1WqGhobS2dmZhoaGWo/DoaYylOHGs/LFHz+aB//PLfnih16Tof/+9qz5wM0vKeb0bdiQpt8+O6eUkkxWEiclHHzPfp97VuXcj38ldz34YL62tjE3XnRNbn/Jvw/N6f21NTlhkauOHw4aGhrS1dWVV7ziFVm4cGGam0U/AACeSxwCAJiFhoaGUiqVnDXES9CUpo6OdPT0ZtUb3p91112U3n/+eK7+zu5rlA1vyDV/uOapM1C+9PDM1cv6vrQ2a35lZRYv7s7iY0/KOX92e4aT9K79Sm65ZPXMK4x/66NZ2d2d7sVrcs1PnzvBE1+7ICceu/gZx0iSh9eds+vxpStz0juvzIbhpPw3b8my33naGTLfvzynnvDR3F5J0r8h17x3TU48dnGWvfacXP6tvSSu7bfmo7+2MssWL86yE9bko/+w+4ya7bfn8jeftOv1Fi/Liad/MNf/aC/Xafve5Vlz3LIsXrw4K39rba79/lP79H3j8pzzayt3Pf93rsn9k0lSzu1/+a6cetyur+PUS29PJUnfNy7JOa9dtuuxd1+Z2/eM+ti1ecuytbl5T8j5/uU59Vc+uivs3HNNzvn1E7Ns6e5jvfuabBh+arRnvM+P9WbVSb3paO3Iql9anoUZ39tv/t6N9eX2L12ZT1z0sVz0qc9n/d2bdnencm67+qJcd/9kktHc+w+fy6c/eVE+9p9373fvwL6/BrNGXV1d2tra0tjovl8AADyXOAQAMMtMTU3NnDUEB8wvnJ2zVj+RW//3Q0mGc/PFa3P18Juy7tv35ZY/X52HL31nLrtzVxApP3x/yqsvy533PZg7/+bs5IsX5PLvVJI0pvFpJ5c0nfoXebA8kIHNt+T9v/Dcl+xYfWG+8u37cud15z3tGEnvGZfmpu8+mAe/e3VO2/jXufjvHk7Pya9L7/fvzu27o0jfHRvyxOrX5PjG4dx88Xm5Nufli9++L197f1PW//FluXX7s16s9TV5/7W3594H78vXPrgoX7/oytxaSTJZzv33d+Tcv78v9/2fr+Wi/3B3LrnouueeQXXsubn6n+7Ngw98O5f9h/tz+Z/duGufH12TtX9ya3o/9Pe5875v5SuXn5EVpaT8pQ9k7Q2NOf9/3Jn77vp6rnrH8Wn80ZVZ+yffSe//e0vu++7f5/ymG7P2j69/4bO1+h/KfZNn5It33Zf7brs6r9t4RT6y7uHnf5+HN+Tyj9+aFf/5wl1ncr2gsTxw03W5bezEnPehi3PBW3uz8Z+uyzceefZpR2MZ2FRO129ckIv/9GNZ++vNefCmf8y9Y/vyGgAAwKFCHAIAmGW2b9+exsbGzJs3r9ajcFjpyML5TRnqH0qGb836f+7Iey95f075hZ4sf/2H86G3VPKN9Xc9tXt3T3p7etL7uj/K2ScP5b4Hntj7YZ8nTDQvOTrLl/Sk96Tzn3GMxiXL09vTkY6jT8t5b+hN3yN9ybGn5bSe23P7hkqS4XznWw/m+FNPS8fwrVn/zUU590PnZtWSnqz6/T/IGaW7c/v3n/v19b6qJx0dPVn1jrNyytRjeXjLnm2dWXhkT3qWrMpZf3Bmen94f+57dhPp6M3yozvSMX95znr7Kens68sTk8n9N92YvlMvzKVvW5Xent4sf1VvGlPO1//h7qz8T5fl3F/pTc+S5Vn1Cx25/6abd+375uXpOXpVzr3k/Ky8Y32+vmkffnuaOrNoSU96jj0t5591fPq+f3+Gn779Ge9zOTd/eG1uf93VWfeO3n04eJKxh7Lhh805+Y2/mWPmt6XnVWtyxqt35oH/+5O97t7c0Z22ju70nnxyVpY2ZePWfXsZAADg0CAOAQDMMhMTE5k7d26tx+CwU86W/vF0zu9M+rfkicne9C7Zs60xvUf2ZKhcznMvuNaYjo7GVLbt5VJs+6wxPTPHGM6GdWuz5rUrs2zZsrxp3UO7dimtyumv78x3vnlXKsO35tb7j8+Zp3XsmnXb/bniNxdn8eLFWbz0nFy7cSjD2571Eo/dnEvefmpOPHZZlv3yR3Lr+Nje74nU0ZnOyvhzLsZW/taVeddvnZhly5Zl5XtvzBNJKkm2bHkinUsW5RkX5pp8Ilu2NOboo3uecYzn7NvTm6Mbn8iWLU/baeqF361FHR3JtvG9/F7sVrkrN9+xOn/0wdXZ5wuG7RjIyHRburv2PFBKW2dbxkZH8/wnBTWnee7OjL2U334AAGDWEYcAAGaZsbEx94jgwPvpjVm/YVFO+48rkvkLs6jUl76ZM1oq6dtYTmdPz15jQ+Pezg4qJZnKC4SFZ+2fJD++Nhd/ppw3XXtXHn300Xz9fatmdln9ljPT8c1v5F++cXPuX3VmTu/JrlmbVufi727O5s17fj2Yq17/9INXcvOffSS3LrkwNz3waB696zM5rfXnDbKXr3ByQ67+2PXJe76SBx99NPd94ezsOR9n4fzODJWfeGaoKXWkc0ElWzY984JxCxcuytCmp+1b7stjlUVZuDBJa1MaM5zhZ5wO9Hzv1fhTf//s97nxzFx919U58+d+jbtNj2VsopQ5pSQt3WmvH83A4MwXnYGB0TS3taX5eQ8yx58aAQDgMOTbfACAWaZSqThziANgPMPlcsqbHs6Gr12Zd/3eZel7wyfzgdc1Jh2n5azXD+f6S6/JhsfKefibV+SzNzXmjLNeu89Hbzzy6Cx86Nbcek855R8/nL59iR7JU2fzTFZSqVSeeQbPiWfnzO6v5yN/dldWve3M9CRJxyk589S+XHvptbn9p+UMl/ty/4/2dobT7kfGK6ns7YyhFzK169d4Zde9lfZYdcaZWfTPV+aSr9yfvnI5fd9/OMPpzRm/fXzuvuriXHtnX8rlvjz843JWveXM9H7rylzytYdT3nR/rr/02jx48ll505IkHavymqPvznXX3JqHN5XTt3E44/sw517f5/KtueKPL8n6x567/9iP78ht9/al3L8pD3779jw0fWReuSRJ84qsXjmWDf90Wx7pH035R7fklh/MyXG/9Mr9eLMAAIBDnTgEADCLjI3tOj/AmUO8JI2d6aisz9rjVmbla9dk7VV3Z+EffCW3XL07uKQjZ/75ury/4+s579eOz5o/3ZDl/+XvcvFJL+Kfu185Px9+w5Zc8abjc/xbP5D1P93H573q/Fz0nsZc9/bjs3jpK/Lm/1bOyiM7d29cnrPOWpnhnJ5z39Cx+7GenHXFdTm/dGMu+K3js+yX12TtVbc/8348aczpH7o0r/nhx3PqsYvziuM+mA0LV2Thvt62q7Q653/ijAxftSYrly7OK95zY3LMwnSUkpz44Xzxr16Xhz/75px0/PFZ80fX5e7tSe971mXd2yq5/v85Kcf/8ql552dvT/lVF2bdX74ufZ9ak+Nf+/ZcO3521v3Vubve89KqnH/lh7Pomx/Ir5+wMid94NY0rVqeRfvzPg/3ZcMdd+eh/ufuPlkZyE+++bf53BWfyw0bkhPOenNOaE2S5hz3O+fllOZ7ct1nL8vnvtqXI9/47pxxzPPcNAoAADhs1VWr1WqthwAAOFRt3rw5ixcvPmDHGxoayujoaJYuXXrAjgkAh6MD/f9gAIAi8WNiAACzSLVajZ/dAfbX5z73uWzatOmFd9wPH/jAB3LUUUcdlGMDAAAvL3EIAGAWKZVKmZqaqvUYwCHqggsuqPUIAADAIcA9hwAAZhFxCAAAADjYxCEAgFmkvr4+1Wo109PTtR4FAAAAOEyJQwAAs0hDQ0OSZOfOnTWeBAAAADhciUMAALPInjjkzCEAAADgYBGHAABmkbq6urS2tmZkZKTWowAAAACHKXEIAGCW6ejoyOjoqLOHAAAAgIOiVOsBAAB4ptbW1pRKpYyOjqajo6Oms0xOTmZ8fDyVSiXj4+OZnp7O1NRUkl2XvqtWq6lWqymVSpk7d+7Mr1KplJaWlprODgAAAOydOAQAMAu1tbVl27ZtL3scqlarGR0dzY4dOzIxMZFKpZK6uro0NjamqakpDQ0Nqa+vT0NDQ+rq6pIk9fX1mZ6ezuTkZCYnJ2eeW1dXl5aWlrS2tqapqell/ToAAACAn08cAgCYhdrb2zM4OJhKpZLGxsaD/nrT09MZGRnJ8PBwqtVqmpub097ensbGxjQ3N+/XMbdt25bR0dEMDAykra0tRxxxRBoaGg7w5AAAAMCLJQ4BAMxCc+bMSWdnZ7Zu3ZqjjjrqoL5Wf39/RkZG0tDQkI6OjrS3t6e+/qXfmnLevHmZN29exsfH09/fn02bNuWII45wFhEAAADU2Ev/Uz8AAAfFggULUiqV8sQTTxyU409MTOTxxx9PpVLJggULcvTRR6ezs/OAhKGna2pqypIlS9LY2JiNGzdm+/btB/T4AAAAwIsjDgEAzGILFizI6Oho+vv7D+hxh4aG0tfXl5aWlixZsiRtbW0H9PjPVldXl56enrS1tWVoaOigvhYAAADw/MQhAIBZrFQq5aijjsrAwEDGx8cPyDErlUq2bt2a7u7uzJ8//4Acc191dXVlx44dGRkZeVlfFwAAAHiKOAQAMMs1Nzenu7s7jz/+eKrV6ks+3pYtW2oShpJd91Jqb2/Pzp07X/bXBgAAAHYRhwAADgHz589PS0tLfvKTn6RSqez3cZ588sk0NjbWJAztMTU1VbPXBgAAAMQhAIBDxpFHHpn29vY89thj2bZt24t+/tTUVIaHhzNv3ryDMN2+mZ6ezo4dO9LY2FizGQAAAKDoxCEAgEPIwoUL093dnc2bN2doaOhFPXfbtm2pr69Pa2vrQZruhQ0NDaVUKtU0UAEAAEDRlWo9AAAAL878+fMzZ86cbN26NRMTE5k/f34aGhpe8Hnbtm2raZTZtm1b+vv7093dXbMZAAAAAGcOAQAcktrb27NkyZJUKpU89thjGRwcTLVafd7n7Nixo2ZxqFKppFwup7u7u6b3OwIAAACcOQQAcMhqbm7O0qVLMzQ0lOHh4YyOjqarqyttbW3P2XdycjJJUldX93KPmZGRkQwMDKSjo0MYAgAAgFlAHAIAOMR1dnamvb09IyMj6e/vz8jISDo6Op5xltD09HSS7NPl5w6UiYmJDAwMZHx8PPPnz99rtAIAAABefuIQAMBhoL6+fiYSDQ8PZ+vWrRkcHExLS0taW1tn9ns54lC1Wp0JVS0tLTnqqKNSKvm2EwAAAGYLf0oHADiM1NfXp6urK+3t7RkbG8v27dvz+OOPp6mpKcmue/80NzcflNceHx/P9u3bMzo6mmq1mvnz56ejo+OgvBYAAACw/8QhAIDDUENDQ+bNm5d58+Zl4cKFGRkZyfT0dH72s59l7ty5aWpqyty5c9PY2JimpqbU19e/6NeYnp5OpVLJxMREduzYkW3btqWlpWXmvkf7c0wAAADg4BOHAAAKoKWlJVu2bElvb29GR0ezc+fOjI6O5sknn0yyKybtCUYNDQ2pq6tLsutMpD2/6urqMj4+PhOEJiYmkiRz5sxJU1NTjjrqqIN2VhIAAABw4IhDAAAFUCqVMnfu3IyPj2f+/Pkzj1er1VQqlZngU6lUnvc4e0JQW1tb5syZk7lz5x7s0QEAAIADTBwCACiIlpaWjI2Npb29feaxurq6NDU1zdyTCAAAADj8uRA8AEBBtLa2Znx8vNZjAAAAADUmDgEAFERzc3OmpqZm7hUEAAAAFJM4BABQEHV1dZk3b15GRkZqPQoAAABQQ+IQAECBdHR0ZGhoKGNjY7UeBQAAAKgRcQgAoEAaGxvT0dGRwcHBWo8CAAAA1Ig4BABQMJ2dnRkfH3d5OQAAACgocQgAoGDmzJmT9vb2DA4OZmpqqtbjAAAAAC+zumq1Wq31EAAAh6rNmzfXegQAKKzFixfXegQAgEOSOAQAAAAAAFAgLisHAAAAAABQIOIQAAAAAABAgYhDAAAAAAAABSIOAQAAAAAAFIg4BAAAAAAAUCDiEAAAAAAAQIGIQwAAAAAAAAUiDgEAAAAAABSIOAQAAAAAAFAg4hAAAAAAAECBiEMAAAAAAAAFIg4BAAAAAAAUiDgEAAAAAABQIOIQAAAAAABAgYhDAAAAAAAABSIOAQAAAAAAFIg4BAAAAAAAUCDiEAAAAAAAQIGIQwAAAAAAAAUiDgEAAAAAABSIOAQAAAAAAFAg4hAAAAAAAECBiEMAAAAAAAAFIg4BAAAAAAAUiDgEAAAAAABQIOIQAAAAAABAgYhDAAAAAAAABSIOAQAAAAAAFIg4BAAAAAAAUCDiEAAAAAAAQIGIQwAAAAAAAAUiDgEAAAAAABSIOAQAAAAAAFAg4hAAAAAAAECBiEMAAAAAAAAFIg4BAAAAAAAUiDgEAAAAAABQIOIQAAAAAABAgYhDAAAAAAAABSIOAQAAAAAAFIg4BAAAAAAAUCDiEAAAAAAAQIGIQwAAAAAAAAUiDgEAAAAAABSIOAQAAAAAAFAg4hAAAAAAAECBiEMAAAAAAAAFIg4BAAAAAAAUiDgEAAAAAABQIOIQAAAAAABAgYhDAAAAAAAABSIOAQAAAAAAFIg4BAAAAAAAUCDiEAAAAAAAQIGIQwAAAAAAAAUiDgEAAAAAABSIOAQAAAAAAFAg4hAAAAAAAECBiEMAAAAAAAAFIg4BAAAAAAAUiDgEAAAAAABQIOIQAAAAAABAgYhDAAAAAAAABSIOAQAAAAAAFIg4BAAAAAAAUCDiEAAAAAAAQIGIQwAAAAAAAAUiDgEAAAAAABSIOAQAAAAAAFAg4hAAAAAAAECBiEMAAAAAAAAFIg4BAAAAAAAUiDgEAAAAAABQIOIQAAAAAABAgYhDAAAAAAAABSIOAQAAAAAAFIg4BAAAAAAAUCDiEAAAAAAAQIGIQwAAAAAAAAUiDgEAAAAAABSIOAQAAAAAAFAg4hAAAAAAAECBiEMAAAAAAAAFIg4BAAAAAAAUiDgEAAAAAABQIOIQAAAAAABAgYhDAAAAAAAABSIOAQAAAAAAFIg4BAAAAAAAUCDiEAAAAAAAQIGIQwAAAAAAAAUiDgEAAAAAABSIOAQAAAAAAFAg4hAAAAAAAECBiEMAAAAAAAAFIg4BAAAAAAAUiDgEAAAAAABQIOIQAAAAAABAgYhDAAAAAAAABSIOAQAAAAAAFIg4BAAAAAAAUCDiEAAAAAAAQIGIQwAAAAAAAAUiDgEAAAAAABSIOAQAAAAAAFAg4hAAAAAAAECBiEMAAAAAAAAFIg4BAAAAAAAUiDgEAAAAAABQIOIQAAAAAABAgYhDAAAAAAAABSIOAQAAAADw/7dnBwIAAAAAgvytB7k0AkbkEAAAAAAAwIgcAgAAAAAAGJFDAAAAAAAAI3IIAAAAAABgRA4BAAAAAACMyCEAAAAAAIAROQQAAAAAADAihwAAAAAAAEbkEAAAAAAAwIgcAgAAAAAAGJFDAAAAAAAAI3IIAAAAAABgRA4BAAAAAACMyCEAAAAAAIAROQQAAAAAADAihwAAAAAAAEbkEAAAAAAAwIgcAgAAAAAAGJFDAAAAAAAAI3IIAAAAAABgRA4BAAAAAACMyCEAAAAAAIAROQQAAAAAADAihwAAAAAAAEbkEAAAAAAAwIgcAgAAAAAAGJFDAAAAAAAAI3IIAAAAAABgRA4BAAAAAACMyCEAAAAAAIAROQQAAAAAADAihwAAAAAAAEbkEAAAAAAAwIgcAgAAAAAAGJFDAAAAAAAAI3IIAAAAAABgRA4BAAAAAACMyCEAAAAAAIAROQQAAAAAADAihwAAAAAAAEbkEAAAAAAAwIgcAgAAAAAAGJFDAAAAAAAAI3IIAAAAAABgRA4BAAAAAACMyCEAAAAAAIAROQQAAAAAADAihwAAAAAAAEbkEAAAAAAAwIgcAgAAAAAAGJFDAAAAAAAAI3IIAAAAAABgRA4BAAAAAACMyCEAAAAAAIAROQQAAAAAADAihwAAAAAAAEbkEAAAAAAAwIgcAgAAAAAAGJFDAAAAAAAAI3IIAAAAAABgRA4BAAAAAACMyCEAAAAAAIAROQQAAAAAADAihwAAAAAAAEbkEAAAAAAAwIgcAgAAAAAAGJFDAAAAAAAAI3IIAAAAAABgRA4BAAAAAACMyCEAAAAAAIAROQQAAAAAADAihwAAAAAAAEbkEAAAAAAAwIgcAgAAAAAAGJFDAAAAAAAAI3IIAAAAAABgRA4BAAAAAACMyCEAAAAAAIAROQQAAAAAADAihwAAAAAAAEbkEAAAAAAAwIgcAgAAAAAAGJFDAAAAAAAAI3IIAAAAAABgRA4BAAAAAACMyCEAAAAAAIAROQQAAAAAADAihwAAAAAAAEbkEAAAAAAAwIgcAgAAAAAAGJFDAAAAAAAAI3IIAAAAAABgRA4BAAAAAACMyCEAAAAAAIAROQQAAAAAADAiZw33EAAABlFJREFUhwAAAAAAAEbkEAAAAAAAwIgcAgAAAAAAGJFDAAAAAAAAI3IIAAAAAABgRA4BAAAAAACMyCEAAAAAAIAROQQAAAAAADAihwAAAAAAAEbkEAAAAAAAwIgcAgAAAAAAGJFDAAAAAAAAI3IIAAAAAABgRA4BAAAAAACMyCEAAAAAAIAROQQAAAAAADAihwAAAAAAAEbkEAAAAAAAwIgcAgAAAAAAGJFDAAAAAAAAI3IIAAAAAABgRA4BAAAAAACMyCEAAAAAAIAROQQAAAAAADAihwAAAAAAAEbkEAAAAAAAwIgcAgAAAAAAGJFDAAAAAAAAI3IIAAAAAABgRA4BAAAAAACMyCEAAAAAAIAROQQAAAAAADAihwAAAAAAAEbkEAAAAAAAwIgcAgAAAAAAGJFDAAAAAAAAI3IIAAAAAABgRA4BAAAAAACMyCEAAAAAAIAROQQAAAAAADAihwAAAAAAAEbkEAAAAAAAwIgcAgAAAAAAGJFDAAAAAAAAI3IIAAAAAABgRA4BAAAAAACMyCEAAAAAAIAROQQAAAAAADAihwAAAAAAAEbkEAAAAAAAwIgcAgAAAAAAGJFDAAAAAAAAI3IIAAAAAABgRA4BAAAAAACMyCEAAAAAAIAROQQAAAAAADAihwAAAAAAAEbkEAAAAAAAwIgcAgAAAAAAGJFDAAAAAAAAI3IIAAAAAABgRA4BAAAAAACMyCEAAAAAAIAROQQAAAAAADAihwAAAAAAAEbkEAAAAAAAwIgcAgAAAAAAGJFDAAAAAAAAI3IIAAAAAABgRA4BAAAAAACMyCEAAAAAAIAROQQAAAAAADAihwAAAAAAAEbkEAAAAAAAwIgcAgAAAAAAGJFDAAAAAAAAI3IIAAAAAABgRA4BAAAAAACMyCEAAAAAAIAROQQAAAAAADAihwAAAAAAAEbkEAAAAAAAwIgcAgAAAAAAGJFDAAAAAAAAI3IIAAAAAABgRA4BAAAAAACMyCEAAAAAAIAROQQAAAAAADAihwAAAAAAAEbkEAAAAAAAwIgcAgAAAAAAGJFDAAAAAAAAI3IIAAAAAABgRA4BAAAAAACMyCEAAAAAAIAROQQAAAAAADAihwAAAAAAAEbkEAAAAAAAwIgcAgAAAAAAGJFDAAAAAAAAI3IIAAAAAABgRA4BAAAAAACMyCEAAAAAAIAROQQAAAAAADAihwAAAAAAAEbkEAAAAAAAwIgcAgAAAAAAGJFDAAAAAAAAI3IIAAAAAABgRA4BAAAAAACMyCEAAAAAAIAROQQAAAAAADAihwAAAAAAAEbkEAAAAAAAwIgcAgAAAAAAGJFDAAAAAAAAI3IIAAAAAABgRA4BAAAAAACMyCEAAAAAAIAROQQAAAAAADAihwAAAAAAAEbkEAAAAAAAwIgcAgAAAAAAGJFDAAAAAAAAI3IIAAAAAABgRA4BAAAAAACMyCEAAAAAAIAROQQAAAAAADAihwAAAAAAAEbkEAAAAAAAwIgcAgAAAAAAGJFDAAAAAAAAI3IIAAAAAABgRA4BAAAAAACMyCEAAAAAAIAROQQAAAAAADAihwAAAAAAAEbkEAAAAAAAwIgcAgAAAAAAGJFDAAAAAAAAI3IIAAAAAABgRA4BAAAAAACMyCEAAAAAAIAROQQAAAAAADAihwAAAAAAAEbkEAAAAAAAwIgcAgAAAAAAGJFDAAAAAAAAI3IIAAAAAABgRA4BAAAAAACMyCEAAAAAAIAROQQAAAAAADAihwAAAAAAAEbkEAAAAAAAwIgcAgAAAAAAGJFDAAAAAAAAI3IIAAAAAABgRA4BAAAAAACMyCEAAAAAAIAROQQAAAAAADAihwAAAAAAAEbkEAAAAAAAwIgcAgAAAAAAGJFDAAAAAAAAI3IIAAAAAABgRA4BAAAAAACMyCEAAAAAAIAROQQAAAAAADAihwAAAAAAAEbkEAAAAAAAwIgcAgAAAAAAGJFDAAAAAAAAI3IIAAAAAABgRA4BAAAAAACMyCEAAAAAAIAROQQAAAAAADAihwAAAAAAAEbkEAAAAAAAwIgcAgAAAAAAGJFDAAAAAAAAI3IIAAAAAABgRA4BAAAAAACMyCEAAAAAAIAROQQAAAAAADAihwAAAAAAAEbkEAAAAAAAwIgcAgAAAAAAGAnJzAr05aj/+QAAAABJRU5ErkJggg==;" parent="1" vertex="1">
                    <mxGeometry x="-30" width="1671" height="924" as="geometry"/>
                </mxCell>
            </root>
        </mxGraphModel>
    </diagram>
</mxfile>